<svg height="100" viewBox="0 0 100 100" width="100" xmlns="http://www.w3.org/2000/svg"><circle cx="50" cy="51.25" fill="#9d5025" r="30.43"/><circle cx="50" cy="48.75" fill="#f58536" r="30.43"/><g fill="#fff"><path d="m44.48 20.81h11.05v17.76h-11.05z" transform="matrix(0 1 -1 0 79.69 -20.31)"/><path d="m63.62 56.16h9v9h-9z" transform="matrix(0 1 -1 0 128.78 -7.47)"/><path d="m52.24 56.16h9v9h-9z" transform="matrix(0 1 -1 0 117.4 3.91)"/><path d="m38.39 56.16h9v9h-9z" transform="matrix(0 1 -1 0 103.55 17.76)"/><path d="m27.01 56.16h9v9h-9z" transform="matrix(0 1 -1 0 92.17 29.14)"/><path d="m30.7 48.36h1.62v8.83h-1.62z"/><path d="m30.7 48.36h13v1.62h-13z"/><path d="m42.08 48.36h1.62v8.83h-1.62z"/><path d="m55.93 48.36h1.62v8.83h-1.62z"/><path d="m55.93 48.36h13v1.62h-13z"/><path d="m67.31 48.36h1.62v8.83h-1.62z"/><path d="m36.4 42.06h1.62v7.11h-1.62z"/><path d="m49.19 33.59h1.62v8.6h-1.62z"/><path d="m36.4 41.38h26.87v1.62h-26.87z"/><path d="m61.65 42.06h1.62v7.11h-1.62z"/></g></svg>