<svg viewBox="0 0 64 64" xmlns="http://www.w3.org/2000/svg" xmlns:xlink="http://www.w3.org/1999/xlink"><defs><g id="a" transform="scale(.4)"><path d="m62 6c0-2-2-4-4-4h-52c-2 0-4 2-4 4v38h60z" fill="#212528"/><path d="m2 44v4c0 2 2 4 4 4h52c2 0 4-2 4-4v-4z" fill="#ddd"/><path d="m24 54c0 4-4 4-8 4h32c-4 0-8 0-8-4v-2h-16z" fill="#bfbebe"/><path d="m6 6h52v34h-52z" fill="#3e4347"/><g fill="#94989b"><circle cx="32" cy="47.9" r="1"/><path d="m16 58h32v4h-32z"/></g></g><g id="b" transform="scale(.3)"><path d="m12 32 15.5 16v-11.4h9v11.4l15.5-16-15.5-16v11.4h-9v-11.4z" fill="#f2b200"/></g></defs><use x="20" xlink:href="#a"/><use xlink:href="#a" y="38"/><use x="38" xlink:href="#a" y="38"/><use x="22.2" xlink:href="#b" y="38"/><use transform="matrix(.70710678 .70710678 -.70710678 .70710678 0 0)" x="45" xlink:href="#b" y="-18"/><use transform="matrix(.70710678 -.70710678 .70710678 .70710678 0 0)" x="-19" xlink:href="#b" y="27"/></svg>